# xmcd
#
# Track frame offsets: 
#        150
#        20620
#        41952
#        61351
#        82572
#        103584
#        120752
#        142844
#        164625
#        180268
#        197045
#        223382
#        245210
#        264530
#        285620
#
# Disc length: 4006 seconds
#
# Revision: 0
# Processed by: cddbd v1.5.2PL0 Copyright (c) Steve Scherf et al.
# Submitted via: ExactAudioCopy v0.99pb3
#
DISCID=d50fa40f
DTITLE=Ryszard Rynkowski - Ryszard Rynkowski
DYEAR=1900
DGENRE=Pop
TTITLE0=Dziewczyny lubia braz
TTITLE1=Natalie
TTITLE2=Dary losu
TTITLE3=Za mlodzi za starzy
TTITLE4=Intymnie
TTITLE5=Zwierzenia Ryska, czyli jedzie pociag
TTITLE6=Wszystko juz bylo procz nas
TTITLE7=Wezcie sobie chlopaki ten kraj
TTITLE8=Czego nie tancza na ulicach
TTITLE9=Bez milosci
TTITLE10=Szczesliwej drogi juz czas
TTITLE11=Wypijmy za bledy
TTITLE12=Inny nie bede
TTITLE13=Nie budzcie marzen ze snu
TTITLE14=Swobodny blues
EXTD=
EXTT0=
EXTT1=
EXTT2=
EXTT3=
EXTT4=
EXTT5=
EXTT6=
EXTT7=
EXTT8=
EXTT9=
EXTT10=
EXTT11=
EXTT12=
EXTT13=
EXTT14=
PLAYORDER=
